# xmcd
#
# Track frame offsets:
#	150
#	27625
#	48710
#	63205
#	80978
#	104605
#	135178
#	161410
#	181520
#	209210
#	231520
#	249255
#	263790
#	290583
#
# Disc length: 4362 seconds
#
# Revision: 1
# Processed by: cddbd v1.5.1PL2 Copyright (c) Steve Scherf et al.
# Submitted via: audiograbber 1.83.01
#
DISCID=cf11080e
DTITLE=Various Artist - Singing The Blues
DYEAR=1992
DGENRE=Blues
TTITLE0=Katie Webster - Pussycat Moan
TTITLE1=John Lee Hooker - Mr Lucky
TTITLE2=Eric Clapton - Hard Times
TTITLE3=Robert Cray - Nothing But A Woman
TTITLE4=BB King - The Blues Come Over Me
TTITLE5=Stevie Ray Vaughan - Little Wing
TTITLE6=Janata - So Tired Of Loving You
TTITLE7=Snowy White - Woke Up This Morning
TTITLE8=Gary Moore - Still Got The Blues
TTITLE9=The Vaughan Brothers - Tick Tock
TTITLE10=Eric Burdon - I Was Born To Live The Blues
TTITLE11=Little Feat - Lonesome Whistle
TTITLE12=Natasha - The Night Is A Hunter
TTITLE13=Son Seals - My Life
EXTD=
EXTT0=
EXTT1=
EXTT2=
EXTT3=
EXTT4=
EXTT5=
EXTT6=
EXTT7=
EXTT8=
EXTT9=
EXTT10=
EXTT11=
EXTT12=
EXTT13=
PLAYORDER=
